<svg width="20" height="20" viewBox="0 0 20 20" fill="none" xmlns="http://www.w3.org/2000/svg">
<g clip-path="url(#clip0_1238_1628)">
<path d="M19.2857 0.714294H15.7143L14.4714 13.0714C14.4198 13.4121 14.2467 13.7226 13.9842 13.9457C13.7217 14.1689 13.3874 14.2896 13.0429 14.2857H4.04285C3.73133 14.302 3.42305 14.2158 3.16509 14.0404C2.90713 13.865 2.71368 13.61 2.61428 13.3143L0.714281 7.60001C0.643441 7.38517 0.624632 7.15659 0.659402 6.93306C0.694173 6.70953 0.781529 6.49746 0.914281 6.31429C1.05258 6.11955 1.2375 5.96259 1.45213 5.85777C1.66675 5.75295 1.90424 5.70362 2.14285 5.71429H15.2143" stroke="#000001" stroke-linecap="round" stroke-linejoin="round"/>
<path d="M4.2857 19.2857C4.68019 19.2857 4.99998 18.9659 4.99998 18.5714C4.99998 18.1769 4.68019 17.8571 4.2857 17.8571C3.89121 17.8571 3.57141 18.1769 3.57141 18.5714C3.57141 18.9659 3.89121 19.2857 4.2857 19.2857Z" stroke="#000001" stroke-linecap="round" stroke-linejoin="round"/>
<path d="M13.5714 19.2857C13.9659 19.2857 14.2857 18.9659 14.2857 18.5714C14.2857 18.1769 13.9659 17.8571 13.5714 17.8571C13.1769 17.8571 12.8571 18.1769 12.8571 18.5714C12.8571 18.9659 13.1769 19.2857 13.5714 19.2857Z" stroke="#000001" stroke-linecap="round" stroke-linejoin="round"/>
</g>
<defs>
<clipPath id="clip0_1238_1628">
<rect width="20" height="20" fill="white"/>
</clipPath>
</defs>
</svg>
