<svg width="40" height="40" viewBox="0 0 40 40" fill="none" xmlns="http://www.w3.org/2000/svg">
<path d="M25 16.6667C25 22.1895 20.5228 26.6667 15 26.6667C13.0322 26.6667 11.1971 26.0983 9.64996 25.1167L5 26.6667L6.54999 22.0167C5.5684 20.4696 5 18.6345 5 16.6667C5 11.1438 9.47715 6.66666 15 6.66666C20.5228 6.66666 25 11.1438 25 16.6667Z" fill="black" stroke="black" stroke-width="2" stroke-linecap="round" stroke-linejoin="round"/>
<path d="M15.5631 26.6493C16.931 30.5424 20.6397 33.3333 25.0002 33.3333C26.968 33.3333 28.8032 32.765 30.3502 31.7833L35.0002 33.3333L33.4502 28.6833L33.6869 28.2907C34.5226 26.8296 35.0002 25.1372 35.0002 23.3333C35.0002 17.8105 30.523 13.3333 25.0002 13.3333L24.6253 13.3402L24.4371 13.3502" stroke="black" stroke-width="2" stroke-linecap="round" stroke-linejoin="round"/>
</svg>
