<svg width="20" height="20" viewBox="0 0 20 20" fill="none" xmlns="http://www.w3.org/2000/svg">
<path d="M12.5 8.33334C12.5 11.0948 10.2614 13.3333 7.5 13.3333C6.51608 13.3333 5.59853 13.0491 4.82498 12.5583L2.5 13.3333L3.27499 11.0084C2.7842 10.2348 2.5 9.31727 2.5 8.33334C2.5 5.57192 4.73858 3.33334 7.5 3.33334C10.2614 3.33334 12.5 5.57192 12.5 8.33334Z" stroke="#828385" stroke-linecap="round" stroke-linejoin="round"/>
<path d="M7.78156 13.3247C8.4655 15.2712 10.3198 16.6667 12.5001 16.6667C13.484 16.6667 14.4016 16.3825 15.1751 15.8917L17.5001 16.6667L16.7251 14.3417L16.8435 14.1453C17.2613 13.4148 17.5001 12.5686 17.5001 11.6667C17.5001 8.90524 15.2615 6.66666 12.5001 6.66666L12.3127 6.67011L12.2186 6.67511" stroke="#828385" stroke-linecap="round" stroke-linejoin="round"/>
</svg>
