<svg width="40" height="40" viewBox="0 0 40 40" fill="none" xmlns="http://www.w3.org/2000/svg">
<path d="M32.7641 16.1686L21.0975 5.96032C20.4691 5.41049 19.5308 5.41049 18.9025 5.96031L7.23578 16.1686C6.87409 16.4851 6.66663 16.9423 6.66663 17.4229V31.6667C6.66663 32.5871 7.41282 33.3333 8.33329 33.3333H15C15.9204 33.3333 16.6666 32.5871 16.6666 31.6667V25C16.6666 24.0795 17.4128 23.3333 18.3333 23.3333H21.6666C22.5871 23.3333 23.3333 24.0795 23.3333 25V31.6667C23.3333 32.5871 24.0795 33.3333 25 33.3333H31.6666C32.5871 33.3333 33.3333 32.5871 33.3333 31.6667V17.4229C33.3333 16.9423 33.1258 16.4851 32.7641 16.1686Z" fill="black" stroke="#14181F" stroke-width="2" stroke-linecap="round" stroke-linejoin="round"/>
</svg>
