<svg width="26" height="32" viewBox="0 0 26 32" fill="none" xmlns="http://www.w3.org/2000/svg">
<path d="M12.3333 17.6666C16.9357 17.6666 20.6666 13.9357 20.6666 9.33329C20.6666 4.73091 16.9357 0.999953 12.3333 0.999953C7.73094 0.999953 3.99998 4.73091 3.99998 9.33329C3.99998 13.9357 7.73094 17.6666 12.3333 17.6666Z" fill="black" stroke="black" stroke-width="2" stroke-linecap="round" stroke-linejoin="round"/>
<path d="M1 30.6667C1 26.9848 6.22334 24 12.6667 24C19.11 24 24.3333 26.9848 24.3333 30.6667" stroke="black" stroke-width="2" stroke-linecap="round" stroke-linejoin="round"/>
<path d="M1.14282 30.746H24.3174" stroke="black" stroke-width="2" stroke-linecap="round"/>
<path d="M8.0635 25.1587C7.19076 25.7522 6.3163 26.5516 5.6508 27.3668C5.64588 27.3728 5.64096 27.3789 5.63604 27.3849M5.63604 27.3849C5.57105 27.4646 5.50621 27.5444 5.44146 27.6242M5.63604 27.3849C5.48328 27.4779 5.34193 27.5801 5.2195 27.6939M5.63604 27.3849C6.16536 27.0625 6.8317 26.8494 7.32275 26.6402C7.86446 26.4093 8.65863 25.9841 9.27337 25.9841C9.53718 25.9841 9.52654 26.1973 9.41242 26.4596M5.44146 27.6242C5.1994 27.9229 4.95857 28.2226 4.71527 28.5203M5.44146 27.6242C5.36729 27.6452 5.29317 27.6685 5.2195 27.6939M5.44146 27.6242C5.51129 27.6045 5.58118 27.5869 5.6508 27.5714C5.74162 27.5512 6.28085 27.3263 6.25044 27.4479C6.09469 28.071 5.31486 28.8958 4.71253 29.0811C4.58426 29.1206 4.63679 28.8647 4.64903 28.7989C4.66691 28.7028 4.68855 28.61 4.71527 28.5203M4.71527 28.5203C4.66041 28.5874 4.60542 28.6544 4.55027 28.7213C4.41439 28.8861 4.324 29.1239 4.17637 29.2716C3.95131 29.4966 3.43551 29.5242 3.13933 29.589C3.00609 29.6182 3.2088 29.2221 3.25221 29.1587C3.56288 28.7046 3.87269 28.4219 4.34215 28.1181C4.60821 27.946 4.91001 27.8008 5.2195 27.6939M4.71527 28.5203C4.78888 28.2729 4.90106 28.0482 5.07937 27.8395C5.12257 27.7889 5.16945 27.7404 5.2195 27.6939M9.41242 26.4596C9.35849 26.5836 9.28145 26.7186 9.19935 26.8472M9.41242 26.4596C9.0527 26.6224 8.70338 26.8225 8.37693 27.0529M9.41242 26.4596C9.86931 26.2528 10.343 26.1061 10.8078 26.0335C11.1658 25.9775 11.8868 25.792 11.7319 26.365C11.7216 26.4033 11.7095 26.4414 11.6958 26.4793M9.19935 26.8472C9.09652 27.0083 8.98574 27.1594 8.90248 27.2666M9.19935 26.8472C8.92137 26.9053 8.64655 26.9735 8.37693 27.0529M9.19935 26.8472C9.74794 26.7324 10.3089 26.6566 10.8667 26.6104M8.90248 27.2666C8.84348 27.3426 8.7983 27.3965 8.77954 27.4162C8.71603 27.483 7.85044 28.27 7.3171 28.4592M8.90248 27.2666C8.21961 27.5041 7.54466 27.8455 7.3171 28.4592M8.90248 27.2666C9.24444 27.1477 9.58838 27.0549 9.87912 26.967M7.3171 28.4592C7.17021 28.5113 7.04853 28.518 6.97574 28.4519M7.3171 28.4592C7.25235 28.6337 7.22382 28.8304 7.24163 29.0529C7.25729 29.2487 7.32739 29.4468 7.45227 29.5774M6.97574 28.4519C6.95958 28.4372 6.94583 28.4189 6.93475 28.3968C6.62795 27.7832 7.25198 27.4492 7.75309 27.261C7.9572 27.1843 8.16547 27.1152 8.37693 27.0529M6.97574 28.4519C6.89567 28.5697 6.82182 28.6902 6.75485 28.813C6.56294 29.1648 6.60571 29.6031 7.06173 29.6031C7.19391 29.6031 7.32406 29.5942 7.45227 29.5774M6.97574 28.4519C7.33669 27.9206 7.82399 27.4432 8.37693 27.0529M10.8667 26.6104C11.1333 26.5883 11.3991 26.573 11.6626 26.5634M10.8667 26.6104C10.7382 26.6479 10.6339 26.6819 10.5891 26.6966C10.3644 26.7706 10.1217 26.8596 9.87912 26.967M10.8667 26.6104C11.1536 26.5266 11.5611 26.425 11.6958 26.4793M11.6626 26.5634C11.6938 26.5623 11.7249 26.5613 11.756 26.5603M11.6626 26.5634C11.6745 26.5355 11.6856 26.5075 11.6958 26.4793M11.6626 26.5634C11.6549 26.5816 11.6468 26.5996 11.6384 26.6177M11.756 26.5603C11.765 26.56 11.7739 26.5597 11.7828 26.5595M11.756 26.5603C11.7512 26.5412 11.7433 26.5231 11.7319 26.5061C11.7243 26.4947 11.712 26.4859 11.6958 26.4793M11.756 26.5603C11.7583 26.569 11.7598 26.5779 11.7608 26.5869M11.7828 26.5595C11.8341 26.5579 11.8854 26.5566 11.9365 26.5555C11.9677 26.5548 11.9947 26.5576 12.0179 26.5634M11.7828 26.5595C11.7754 26.5686 11.768 26.5777 11.7608 26.5869M11.7828 26.5595C12.0521 26.2295 12.4329 25.9863 12.9242 25.8712C13.4863 25.7395 14.9198 25.3616 14.7443 26.3368C14.7209 26.4667 14.6686 26.5915 14.5974 26.7108M12.0179 26.5634C12.1082 26.5861 12.1404 26.6547 12.1403 26.7418M12.0179 26.5634C11.9326 26.5747 11.847 26.5867 11.7617 26.5992M12.0179 26.5634C12.944 26.4411 13.8266 26.403 13.8413 26.6825C13.8415 26.6876 13.8418 26.6927 13.842 26.6978M12.1403 26.7418C12.1401 26.8349 12.103 26.9491 12.0605 27.051M12.1403 26.7418C12.0044 26.743 11.8654 26.7469 11.7245 26.7541M12.1403 26.7418C12.2781 26.7406 12.4128 26.7422 12.5432 26.746C12.6421 26.7489 12.6569 26.8105 12.6296 26.895M12.0605 27.051C12.0367 27.108 12.0111 27.1611 11.9894 27.2045C11.8197 27.5441 11.5819 27.8627 11.2976 28.1412M12.0605 27.051C11.8159 27.1332 11.5823 27.2358 11.3811 27.3669M12.0605 27.051C12.2469 26.9883 12.4397 26.9375 12.6296 26.895M11.2976 28.1412C11.1731 28.2632 11.0396 28.3775 10.899 28.4824M11.2976 28.1412C11.2984 28.1705 11.2997 28.1999 11.3013 28.2294M11.2976 28.1412C11.2899 27.8698 11.3178 27.6092 11.3811 27.3669M10.899 28.4824C10.8493 28.5196 10.7986 28.5556 10.7472 28.5903M10.899 28.4824C11.0359 28.4019 11.1704 28.3176 11.3013 28.2294M10.899 28.4824C10.8468 28.5132 10.7943 28.5433 10.7415 28.5729M10.7472 28.5903C10.4199 28.8112 10.0598 28.9819 9.68738 29.0839M10.7472 28.5903C10.8325 28.825 11.2215 28.7876 11.5148 28.7333M10.7472 28.5903C10.7451 28.5847 10.7432 28.5789 10.7415 28.5729M9.68738 29.0839C9.48143 29.1403 9.27172 29.1757 9.06173 29.1869C9.03216 29.1885 8.98826 29.1924 8.93489 29.1968M9.68738 29.0839C10.0356 28.938 10.3941 28.7676 10.7415 28.5729M9.68738 29.0839C9.62901 29.1083 9.57093 29.1321 9.51323 29.1552C9.26149 29.2559 8.98279 29.3263 8.70372 29.349M8.93489 29.1968C8.84425 29.2043 8.7263 29.2131 8.60485 29.2141M8.93489 29.1968C9.53896 28.7897 10.1148 28.3282 10.6455 27.8324C10.7312 27.7523 10.8229 27.6652 10.9155 27.5722M8.93489 29.1968C8.86002 29.2473 8.78471 29.2969 8.709 29.3456C8.70724 29.3468 8.70548 29.3479 8.70372 29.349M8.60485 29.2141C8.43108 29.2155 8.25014 29.2009 8.13174 29.1434M8.60485 29.2141C9.43137 28.8101 10.1759 28.1609 10.8713 27.6067C10.8818 27.5982 10.8968 27.5866 10.9155 27.5722M8.60485 29.2141C8.50669 29.2621 8.40738 29.3066 8.30686 29.3471M8.13174 29.1434C8.06485 29.1109 8.01792 29.0647 8.00353 29C7.94565 28.7395 8.17306 28.2763 8.33157 28.0793C8.47089 27.9062 8.63142 27.7542 8.80838 27.6209M8.13174 29.1434C8.1496 29.2474 8.19399 29.3352 8.29277 29.3456C8.29746 29.3461 8.30216 29.3466 8.30686 29.3471M8.13174 29.1434C8.11334 29.0363 8.12308 28.9121 8.13051 28.8377C8.18038 28.339 8.44488 27.9402 8.80838 27.6209M8.80838 27.6209C9.55469 27.0588 10.5931 26.8304 11.5628 26.7638M8.80838 27.6209C9.11741 27.3495 9.49801 27.1357 9.87912 26.967M11.5628 26.7638C11.5886 26.762 11.6144 26.7603 11.64 26.7588M11.5628 26.7638C11.5902 26.7155 11.6155 26.6668 11.6384 26.6177M11.5628 26.7638C11.3961 27.0577 11.1526 27.3341 10.9155 27.5722M11.64 26.7588C11.6683 26.7571 11.6964 26.7555 11.7245 26.7541M11.64 26.7588C11.5748 26.863 11.5188 26.9738 11.472 27.0902M11.64 26.7588C11.6741 26.7043 11.7107 26.6517 11.7499 26.6009M11.7245 26.7541C11.7501 26.6991 11.7639 26.6468 11.7617 26.5992M11.7245 26.7541C11.6749 26.8608 11.5807 26.9777 11.472 27.0902M12.6296 26.895C12.5702 27.0785 12.3114 27.3701 12.2822 27.4021C12.0031 27.7076 11.6663 27.9834 11.3013 28.2294M12.6296 26.895C12.9103 26.8321 13.1844 26.7875 13.4215 26.7495C13.5057 26.7361 13.6598 26.7133 13.842 26.6978M11.3013 28.2294C11.3024 28.2487 11.3037 28.268 11.3051 28.2874C11.3239 28.541 11.3983 28.6809 11.5148 28.7333M10.7415 28.5729C10.7341 28.5468 10.7302 28.5176 10.7302 28.485C10.7302 27.9714 10.9966 27.6173 11.3811 27.3669M8.70372 29.349C8.57056 29.3599 8.4373 29.3599 8.30686 29.3471M8.70372 29.349C8.45317 29.5103 8.15296 29.7001 7.84833 29.7266C7.68236 29.741 7.5504 29.68 7.45227 29.5774M8.30686 29.3471C8.03147 29.458 7.74699 29.5387 7.45227 29.5774M9.87912 26.967C9.89729 26.9615 9.91525 26.956 9.93298 26.9506C10.0947 26.9008 10.8408 26.7396 11.6384 26.6177M11.7608 26.5869C11.7612 26.591 11.7615 26.5951 11.7617 26.5992M11.7608 26.5869C11.7571 26.5916 11.7535 26.5963 11.7499 26.6009M11.7617 26.5992C11.7578 26.5998 11.7538 26.6004 11.7499 26.6009M11.472 27.0902C11.2742 27.2949 11.0283 27.4849 10.9155 27.5722M11.472 27.0902C11.4363 27.1793 11.4059 27.2717 11.3811 27.3669M11.6384 26.6177C11.6755 26.612 11.7127 26.6064 11.7499 26.6009M13.842 26.6978C13.8843 27.7097 12.8142 28.1496 12.0952 28.5873C12.0791 28.5971 12.063 28.6066 12.0472 28.6157M13.842 26.6978C14.0772 26.6779 14.3591 26.6702 14.5974 26.7108M12.0472 28.6157C11.8296 28.7406 11.6457 28.7922 11.5148 28.7333M12.0472 28.6157C12.6713 28.4363 13.2032 28.0641 13.7002 27.6349C13.9878 27.3865 14.3805 27.0741 14.5974 26.7108M12.0472 28.6157C11.9604 28.6406 11.8718 28.6618 11.7813 28.679C11.7193 28.6907 11.6236 28.7132 11.5148 28.7333M14.5974 26.7108C14.908 26.7636 15.1446 26.8981 15.1076 27.194C15.0618 27.5599 14.5169 27.9583 14.2646 28.1569C13.9 28.4439 13.4655 28.6286 13.0441 28.813C12.1469 29.2055 11.245 29.5501 10.2884 29.7593M10.2884 29.7593C10.257 29.7662 10.2255 29.7729 10.194 29.7795C9.6451 29.894 9.0213 30.0713 8.46561 29.9206C8.32005 29.8811 8.17549 29.8432 8.0302 29.8085M10.2884 29.7593C10.1024 29.7776 9.91581 29.7902 9.7284 29.7936C9.1639 29.8039 8.59726 29.806 8.0302 29.8085M10.2884 29.7593C10.8513 29.7041 11.4095 29.5976 11.9718 29.5396C12.9888 29.4349 13.9881 29.5309 15.0053 29.5396C16.4715 29.5523 17.9337 29.4762 19.4004 29.4762C20.0261 29.4762 20.6399 29.4127 21.2663 29.4127C21.556 29.4127 22.223 29.5502 22.4621 29.3351C22.6779 29.1408 22.128 28.9211 21.9683 28.8412L21.9166 28.8154C21.5058 28.6099 21.1114 28.4127 20.6844 28.2371M8.0302 29.8085C7.88505 29.7739 7.73917 29.7425 7.59083 29.716C7.1112 29.6304 6.68286 29.6031 6.19753 29.6031C5.7716 29.6031 5.29473 29.5886 4.91711 29.8289C4.5725 30.0482 5.02379 29.8708 5.24163 29.8606C6.16713 29.8176 7.09922 29.8126 8.0302 29.8085ZM20.6844 28.2371C20.6563 28.2256 20.628 28.2141 20.5997 28.2028C20.2129 28.0481 19.8452 27.82 19.4533 27.6666C18.9324 27.4628 18.3275 27.2962 17.7778 27.2045C17.2962 27.1243 16.8084 26.9766 16.3175 27C15.8686 27.0213 15.7332 26.4284 15.6861 26.0511C15.5679 25.1057 17.5248 26.034 17.806 26.1746C18.4769 26.51 19.2305 26.6237 19.8413 27.0987C19.9839 27.2096 20.5203 27.7916 20.6844 28.2371ZM20.6844 28.2371C20.7494 28.4137 20.7559 28.5689 20.6561 28.6649C20.5143 28.8012 20.3013 28.8878 20.0585 28.9442M20.0585 28.9442C19.5389 29.0649 18.8831 29.0471 18.4974 29.0811C18.186 29.1086 17.8899 29.1368 17.6004 29.1479M20.0585 28.9442C20.1016 28.7759 19.5853 28.6696 19.5273 28.6508C19.3043 28.5781 19.073 28.5257 18.8378 28.4881M20.0585 28.9442C20.0536 28.9632 20.0417 28.983 20.0212 29.0035C19.5599 29.4648 18.424 29.3922 17.6004 29.1479M17.6004 29.1479C17.084 29.1676 16.5882 29.1324 16.0635 28.94C15.8129 28.8481 15.4697 28.8823 15.6543 28.5802C15.9215 28.1431 16.4889 27.9707 16.9665 27.8677C17.4805 27.7568 19.2971 27.4273 18.8571 28.4462C18.851 28.4604 18.8445 28.4744 18.8378 28.4881M17.6004 29.1479C17.5357 29.1287 17.4729 29.1084 17.4125 29.0873M18.8378 28.4881C18.592 28.9909 17.9866 29.1239 17.4125 29.0873M18.8378 28.4881C18.366 28.4127 17.8786 28.3968 17.4109 28.3968C17.1185 28.3968 16.5737 28.3532 16.381 28.6366C16.2759 28.7912 16.4403 28.8628 16.5926 28.9188C16.8198 29.0024 17.1118 29.0681 17.4125 29.0873M17.4125 29.0873C17.2019 29.0136 17.0206 28.929 16.8889 28.8412" stroke="black" stroke-width="2" stroke-linecap="round"/>
<path d="M10.4762 26.0477C10.8336 25.7553 11.4602 25.6985 11.9048 25.5997C12.2103 25.5318 12.6345 25.1163 12.9524 25.2223" stroke="black" stroke-width="2" stroke-linecap="round"/>
</svg>
