<svg width="50" height="50" viewBox="0 0 50 50" fill="none" xmlns="http://www.w3.org/2000/svg">
<g clip-path="url(#clip0_1906_300)">
<path fill-rule="evenodd" clip-rule="evenodd" d="M25 47.4996C37.4263 47.4996 47.5 37.4259 47.5 24.9998C47.5 12.5736 37.4263 2.49998 25 2.49998C12.5737 2.49998 2.5 12.5736 2.5 24.9998C2.5 37.4259 12.5737 47.4996 25 47.4996ZM25 49.9996C38.8075 49.9996 50 38.8072 50 24.9998C50 11.1924 38.8075 0 25 0C11.1925 0 0 11.1924 0 24.9998C0 38.8072 11.1925 49.9996 25 49.9996Z" fill="black"/>
<path d="M9.9989 39.5369C9.9989 38.2456 10.9639 37.1544 12.2489 37.0119C21.8927 35.9444 28.1489 36.0407 37.7714 37.0356C38.2519 37.0861 38.7073 37.2754 39.082 37.5804C39.4567 37.8855 39.7345 38.293 39.8814 38.7533C40.0283 39.2136 40.0379 39.7067 39.9092 40.1723C39.7804 40.638 39.5189 41.0561 39.1564 41.3756C27.8002 51.2743 21.3102 51.138 10.7989 41.3856C10.2864 40.9106 9.9989 40.2344 9.9989 39.5369Z" fill="black"/>
<path fill-rule="evenodd" clip-rule="evenodd" d="M37.6427 38.2788C28.0964 37.2913 21.9302 37.1988 12.3852 38.255C12.071 38.2916 11.7813 38.4428 11.5717 38.6797C11.362 38.9166 11.2471 39.2224 11.2489 39.5387C11.2489 39.8962 11.3977 40.235 11.6489 40.47C16.8589 45.3024 20.8064 47.4862 24.6652 47.4999C28.5377 47.5137 32.6977 45.3474 38.3352 40.435C38.5143 40.2756 38.6432 40.0676 38.7063 39.8363C38.7694 39.6049 38.7639 39.3603 38.6906 39.132C38.6172 38.9038 38.4791 38.7017 38.2931 38.5505C38.1071 38.3992 37.8811 38.304 37.6427 38.2788ZM12.1114 35.77C21.8564 34.6913 28.2039 34.7888 37.9014 35.7925C38.6243 35.868 39.3095 36.1526 39.8731 36.6114C40.4367 37.0703 40.8543 37.6835 41.0748 38.3761C41.2953 39.0687 41.309 39.8105 41.1144 40.5107C40.9197 41.211 40.5251 41.8393 39.9789 42.3187C34.2602 47.3037 29.4977 50.0187 24.6577 49.9999C19.8039 49.9824 15.2514 47.2212 9.95016 42.3025C9.5706 41.9489 9.26802 41.5209 9.06134 41.0452C8.85465 40.5694 8.74829 40.0562 8.74891 39.5375C8.74709 38.6055 9.08916 37.7057 9.70961 37.0103C10.3301 36.3149 11.1853 35.8741 12.1114 35.77Z" fill="black"/>
<path d="M35 19.9998C35 22.652 33.9464 25.1955 32.0711 27.0708C30.1957 28.9462 27.6522 29.9997 25 29.9997C22.3478 29.9997 19.8043 28.9462 17.9289 27.0708C16.0536 25.1955 15 22.652 15 19.9998C15 17.3477 16.0536 14.8042 17.9289 12.9288C19.8043 11.0535 22.3478 9.99992 25 9.99992C27.6522 9.99992 30.1957 11.0535 32.0711 12.9288C33.9464 14.8042 35 17.3477 35 19.9998Z" fill="black"/>
<path fill-rule="evenodd" clip-rule="evenodd" d="M25 27.4998C26.9891 27.4998 28.8968 26.7096 30.3033 25.3031C31.7098 23.8966 32.5 21.9889 32.5 19.9998C32.5 18.0107 31.7098 16.1031 30.3033 14.6966C28.8968 13.2901 26.9891 12.4999 25 12.4999C23.0109 12.4999 21.1032 13.2901 19.6967 14.6966C18.2902 16.1031 17.5 18.0107 17.5 19.9998C17.5 21.9889 18.2902 23.8966 19.6967 25.3031C21.1032 26.7096 23.0109 27.4998 25 27.4998ZM25 29.9997C27.6522 29.9997 30.1957 28.9462 32.0711 27.0708C33.9464 25.1955 35 22.652 35 19.9998C35 17.3477 33.9464 14.8042 32.0711 12.9288C30.1957 11.0535 27.6522 9.99992 25 9.99992C22.3478 9.99992 19.8043 11.0535 17.9289 12.9288C16.0536 14.8042 15 17.3477 15 19.9998C15 22.652 16.0536 25.1955 17.9289 27.0708C19.8043 28.9462 22.3478 29.9997 25 29.9997Z" fill="black"/>
</g>
<defs>
<clipPath id="clip0_1906_300">
<rect width="50" height="50" fill="white"/>
</clipPath>
</defs>
</svg>
