<svg width="166" height="166" viewBox="0 0 166 166" fill="none" xmlns="http://www.w3.org/2000/svg">
<rect x="0.299805" y="0.799805" width="165.2" height="165.2" rx="10.5" fill="#D9D9D9"/>
<path d="M112.581 82.2804C112.581 81.5006 112.271 80.7528 111.72 80.2015C111.168 79.6501 110.42 79.3404 109.641 79.3404C108.861 79.3404 108.113 79.6501 107.562 80.2015C107.01 80.7528 106.701 81.5006 106.701 82.2804H112.581ZM83.1808 58.7604C83.9605 58.7604 84.7083 58.4506 85.2596 57.8993C85.811 57.3479 86.1207 56.6001 86.1207 55.8204C86.1207 55.0406 85.811 54.2928 85.2596 53.7415C84.7083 53.1901 83.9605 52.8804 83.1808 52.8804V58.7604ZM105.231 105.8H61.1308V111.68H105.231V105.8ZM59.6608 104.33V60.2304H53.7808V104.33H59.6608ZM106.701 82.2804V104.33H112.581V82.2804H106.701ZM61.1308 58.7604H83.1808V52.8804H61.1308V58.7604ZM61.1308 105.8C60.7409 105.8 60.367 105.645 60.0913 105.37C59.8156 105.094 59.6608 104.72 59.6608 104.33H53.7808C53.7808 106.28 54.5551 108.149 55.9335 109.528C57.3119 110.906 59.1814 111.68 61.1308 111.68V105.8ZM105.231 111.68C107.18 111.68 109.05 110.906 110.428 109.528C111.806 108.149 112.581 106.28 112.581 104.33H106.701C106.701 104.72 106.546 105.094 106.27 105.37C105.995 105.645 105.621 105.8 105.231 105.8V111.68ZM59.6608 60.2304C59.6608 59.8405 59.8156 59.4666 60.0913 59.1909C60.367 58.9152 60.7409 58.7604 61.1308 58.7604V52.8804C59.1814 52.8804 57.3119 53.6547 55.9335 55.0331C54.5551 56.4115 53.7808 58.281 53.7808 60.2304H59.6608Z" fill="#313333"/>
<path d="M56.7217 98.4503L72.4404 84.0414C72.9702 83.5558 73.6595 83.2811 74.3781 83.2692C75.0966 83.2573 75.7947 83.509 76.3403 83.9767L94.9417 99.9203M89.0617 92.5703L96.078 85.554C96.5784 85.0532 97.2428 84.7499 97.949 84.6996C98.6552 84.6494 99.3557 84.8557 99.922 85.2806L109.642 92.5703M102.292 73.4603V55.8203M102.292 55.8203L94.9417 63.1703M102.292 55.8203L109.642 63.1703" stroke="#313333" stroke-width="5.87999" stroke-linecap="round" stroke-linejoin="round"/>
</svg>
