<svg width="91" height="88" viewBox="0 0 91 88" fill="none" xmlns="http://www.w3.org/2000/svg">
<rect x="0.5" y="0.5" width="90" height="87" rx="9.5" stroke="#828385"/>
<path d="M68.3929 33.0714C68.3929 32.219 68.0542 31.4014 67.4514 30.7986C66.8486 30.1958 66.0311 29.8572 65.1786 29.8572H58.75L53.9286 23.4286H41.0714L36.25 29.8572H29.8214C28.969 29.8572 28.1514 30.1958 27.5486 30.7986C26.9458 31.4014 26.6071 32.219 26.6071 33.0714V52.3572C26.6071 53.2096 26.9458 54.0272 27.5486 54.63C28.1514 55.2328 28.969 55.5714 29.8214 55.5714H65.1786C66.0311 55.5714 66.8486 55.2328 67.4514 54.63C68.0542 54.0272 68.3929 53.2096 68.3929 52.3572V33.0714Z" stroke="#000001" stroke-width="2" stroke-linecap="round" stroke-linejoin="round"/>
<path d="M47.5 48.3393C51.4942 48.3393 54.7321 45.1013 54.7321 41.1071C54.7321 37.1129 51.4942 33.875 47.5 33.875C43.5058 33.875 40.2679 37.1129 40.2679 41.1071C40.2679 45.1013 43.5058 48.3393 47.5 48.3393Z" stroke="#000001" stroke-width="2" stroke-linecap="round" stroke-linejoin="round"/>
</svg>
